Coordinates
version=1
nRows=26
nColumns=24
inDegrees=yes

Units are S.I. units (second, meters, Newtons, ...)
Angles are in degrees.

endheader
time	pelvis_tilt	pelvis_list	pelvis_rotation	pelvis_tx	pelvis_ty	pelvis_tz	hip_flexion_r	hip_adduction_r	hip_rotation_r	knee_angle_r	ankle_angle_r	subtalar_angle_r	mtp_angle_r	hip_flexion_l	hip_adduction_l	hip_rotation_l	knee_angle_l	ankle_angle_l	subtalar_angle_l	mtp_angle_l	lumbar_extension	lumbar_bending	lumbar_rotation
      0.83733333	     -2.58281767	     -2.15205802	     -0.36550234	     -0.19005205	      1.03981373	      0.29853026	     -8.66293946	      4.69633572	     -0.36669403	    -11.71772735	     18.15473876	     -0.71537904	      7.38987252	     25.88045457	     -3.02976812	      5.05824383	     -1.84269501	      0.16846994	     -0.53201913	      5.19988036	    -13.12411448	      5.22832183	      3.17008269
      0.84150000	     -2.57621190	     -2.07592656	     -0.39040344	     -0.18424378	      1.03895812	      0.29812909	     -8.80443858	      4.57002032	     -0.47325303	    -12.18124989	     18.39455337	     -0.49388803	      7.38309344	     25.97538861	     -2.84511498	      5.23206523	     -2.36941635	      0.07650272	     -0.57802274	      5.22015656	    -13.06949855	      5.08009434	      3.14267385
      0.84566667	     -2.56714467	     -1.97734136	     -0.42356304	     -0.17841090	      1.03816123	      0.29774678	     -8.93815111	      4.41834890	     -0.55913823	    -12.66888731	     18.61021371	     -0.30113421	      7.38672049	     26.06538602	     -2.64068693	      5.39638704	     -2.95269984	     -0.03245098	     -0.61572096	      5.24618688	    -13.02625641	      4.89034567	      3.11237747
      0.84983333	     -2.57622151	     -1.88432183	     -0.45337816	     -0.17255398	      1.03736949	      0.29732487	     -9.03569615	      4.26627691	     -0.69068187	    -13.19248255	     18.80910570	     -0.03673886	      7.40140841	     26.19756393	     -2.43688240	      5.51822429	     -3.63072178	     -0.18357477	     -0.66269941	      5.28823361	    -12.93653214	      4.72867648	      3.09201839
      0.85400000	     -2.57247038	     -1.76984661	     -0.49226425	     -0.16667585	      1.03666239	      0.29694046	     -9.13946203	      4.09333001	     -0.77146233	    -13.73443944	     18.96490716	      0.13650357	      7.42306355	     26.30734048	     -2.21799314	      5.64402543	     -4.34083122	     -0.33310012	     -0.69425458	      5.32761698	    -12.88087540	      4.50993986	      3.06443463
      0.85816667	     -2.58213567	     -1.65940148	     -0.52910648	     -0.16076910	      1.03597811	      0.29650178	     -9.21022642	      3.91393213	     -0.91444383	    -14.31396470	     19.11192157	      0.43485023	      7.46704978	     26.45276976	     -1.99918348	      5.71442063	     -5.13430343	     -0.51774571	     -0.72505047	      5.38707850	    -12.78431709	      4.32681303	      3.05046952
      0.86233333	     -2.60647101	     -1.54279871	     -0.57101020	     -0.15484616	      1.03531417	      0.29607752	     -9.25077869	      3.72793886	     -1.02884439	    -14.92546460	     19.21170662	      0.67403365	      7.53093768	     26.61700199	     -1.77908348	      5.78333688	     -5.96882777	     -0.70053675	     -0.75084855	      5.45642782	    -12.68190696	      4.12232947	      3.03410150
      0.86650000	     -2.63304557	     -1.41267627	     -0.62035694	     -0.14889042	      1.03471231	      0.29566687	     -9.27833212	      3.52597464	     -1.11309802	    -15.56003722	     19.27186055	      0.85979946	      7.59338189	     26.78016375	     -1.55158033	      5.83736514	     -6.83034946	     -0.88311775	     -0.77695481	      5.50717900	    -12.57324319	      3.87761950	      3.01251870
      0.87066667	     -2.66820992	     -1.29904402	     -0.66997655	     -0.14292405	      1.03413021	      0.29523106	     -9.26878090	      3.33332438	     -1.24584303	    -16.25171244	     19.29758813	      1.09182590	      7.67328312	     26.96882016	     -1.34325824	      5.85532698	     -7.74883867	     -1.05566196	     -0.80139045	      5.55740824	    -12.43082787	      3.66515367	      3.00142355
      0.87483333	     -2.69322690	     -1.16782125	     -0.72183324	     -0.13693880	      1.03363480	      0.29478237	     -9.26549164	      3.11762238	     -1.35208449	    -16.94826368	     19.28902143	      1.36710399	      7.77939837	     27.14580915	     -1.12160855	      5.85128156	     -8.68886556	     -1.24151051	     -0.80903932	      5.60849228	    -12.33436385	      3.43955059	      2.99428077
      0.87900000	     -2.72747986	     -1.04829250	     -0.77671898	     -0.13093388	      1.03316259	      0.29432422	     -9.22533603	      2.90770337	     -1.47892065	    -17.70083817	     19.23666476	      1.63656245	      7.90911961	     27.33784040	     -0.91758550	      5.82647039	     -9.65823599	     -1.39944033	     -0.81464977	      5.65657756	    -12.20402397	      3.21907194	      2.98943884
      0.88316667	     -2.75978442	     -0.92760230	     -0.83552373	     -0.12491390	      1.03275234	      0.29385180	     -9.16744325	      2.68961706	     -1.60847623	    -18.48957541	     19.13588666	      1.91255188	      8.06337508	     27.52536979	     -0.71841218	      5.77936681	    -10.63901403	     -1.53901823	     -0.81624059	      5.69879375	    -12.07560502	      3.00059621	      2.98972236
      0.88733333	     -2.78027819	     -0.80459483	     -0.90024276	     -0.11888080	      1.03241531	      0.29337839	     -9.09750315	      2.46020149	     -1.75049968	    -19.32471700	     18.99747442	      2.21690363	      8.25685460	     27.69446033	     -0.52556223	      5.70725506	    -11.62319025	     -1.65749373	     -0.80752898	      5.73649289	    -11.96156067	      2.77546452	      2.99585897
      0.89150000	     -2.78756790	     -0.69966901	     -0.95978008	     -0.11286655	      1.03214817	      0.29285305	     -9.01180785	      2.23912804	     -1.92873016	    -20.21384266	     18.83988870	      2.57950322	      8.66296730	     27.85227470	     -0.35185322	      5.61709793	    -12.61806327	     -1.75576060	     -0.76909019	      5.78826357	    -11.87719180	      2.60365476	      3.02740724
      0.89566667	     -2.78616499	     -0.56937038	     -1.03489409	     -0.10679399	      1.03197347	      0.29238664	     -8.92366900	      1.98861748	     -2.05922734	    -21.11380272	     18.48117892	      2.76703449	     12.00947273	     27.96943169	     -0.16820098	      5.50923925	    -13.56763172	     -1.81684238	     -0.76980698	      6.01779071	    -11.78790292	      2.34693812	      3.03523126
      0.89983333	     -2.79993982	     -0.44680041	     -1.11090635	     -0.10071511	      1.03183458	      0.29188293	     -8.78501314	      1.73518665	     -2.21779252	    -22.08518035	     18.19304061	      3.09248683	     12.06966972	     28.08266220	      0.00682828	      5.42819002	    -14.48106855	     -1.88338123	     -0.79175020	      6.00873769	    -11.66981371	      2.13002876	      3.03889541
      0.90400000	     -2.79483381	     -0.31641345	     -1.18920818	     -0.09463365	      1.03178127	      0.29137268	     -8.63644023	      1.46189656	     -2.39640441	    -23.10866722	     17.84470020	      3.45151006	     12.18223054	     28.15998467	      0.18341655	      5.31692467	    -15.36966731	     -1.89874677	     -0.78484889	      5.99200052	    -11.58348919	      1.89265723	      3.05296218
      0.90816667	     -2.78370088	     -0.20295525	     -1.26661242	     -0.08857364	      1.03177509	      0.29083427	     -8.46086343	      1.19579183	     -2.59431736	    -24.18850423	     17.46274605	      3.82506462	     12.39084907	     28.22090186	      0.34016407	      5.19547357	    -16.24019995	     -1.87848467	     -0.76394283	      5.95960957	    -11.51068877	      1.68483628	      3.08217838
      0.91233333	     -2.69203563	     -0.05887305	     -1.33356327	     -0.08249464	      1.03199242	      0.29028617	     -8.35543433	      0.88201720	     -2.83989517	    -25.28436325	     16.93659327	      4.21469197	     14.54183510	     28.15192457	      0.52858405	      5.07276225	    -17.02579538	     -1.83064280	     -0.70267573	      5.58419588	    -11.53936706	      1.40891920	      3.19853917
      0.91650000	     -2.74054633	      0.05829449	     -1.43561487	     -0.07641357	      1.03203119	      0.28977787	     -8.04666972	      0.59794218	     -2.99116245	    -26.47760001	     16.42693446	      4.51204259	     14.65649614	     28.21369480	      0.67357487	      4.95581481	    -17.77973438	     -1.77091409	     -0.76120828	      5.56613471	    -11.36751698	      1.21986822	      3.12505773
      0.92066667	     -2.69383401	      0.19291193	     -1.51618486	     -0.07036770	      1.03226862	      0.28922789	     -7.81461815	      0.27650341	     -3.22127692	    -27.70867061	     15.86613036	      4.91963223	     14.83930778	     28.14742391	      0.84291442	      4.82665035	    -18.47614133	     -1.67033815	     -0.74670971	      5.53847785	    -11.33235488	      0.98591582	      3.13521562
      0.92483333	     -2.59913585	      0.32809354	     -1.58223096	     -0.06435418	      1.03266196	      0.28864432	     -7.61075942	     -0.05784306	     -3.48075325	    -28.95994385	     15.15816968	      5.31747626	     17.39604001	     27.99421751	      1.02425225	      4.74576670	    -19.09980228	     -1.56049114	     -0.77912960	      5.09249352	    -11.37681770	      0.71788637	      3.30418429
      0.92900000	     -2.58431325	      0.47743802	     -1.68367672	     -0.05833583	      1.03296499	      0.28814292	     -7.26971745	     -0.40867057	     -3.66599685	    -30.30587866	     14.50700346	      5.64034213	     17.49823193	     27.90260016	      1.19351824	      4.58461852	    -19.68018959	     -1.40505325	     -0.78920488	      5.07846193	    -11.29031858	      0.48839749	      3.17404328
      0.93316667	     -2.49516763	      0.61729749	     -1.74955065	     -0.05238095	      1.03344436	      0.28755065	     -6.98921273	     -0.76609553	     -3.92228338	    -31.66374805	     13.71642324	      6.04218076	     19.07384345	     27.69732047	      1.38068636	      4.51838934	    -20.18210391	     -1.25024726	     -0.84857834	      4.79749309	    -11.33018185	      0.22779098	      3.29267339
      0.93733333	     -2.45923853	      0.77670401	     -1.84768430	     -0.04643770	      1.03388347	      0.28705196	     -6.60298793	     -1.14512392	     -4.10799580	    -33.10201360	     12.95927120	      6.35509064	     19.16922222	     27.52713132	      1.56037233	      4.35761752	    -20.64446135	     -1.04120644	     -0.84726873	      4.78563864	    -11.27732780	     -0.02135649	      3.17470630
      0.94150000	     -2.39399318	      0.94064350	     -1.93055069	     -0.04054527	      1.03442300	      0.28652081	     -6.21984437	     -1.54033489	     -4.32151620	    -34.57216857	     12.13251795	      6.70951895	     19.32543743	     27.29406209	      1.75799539	      4.24453777	    -21.03726910	     -0.83268801	     -0.89017079	      4.76269303	    -11.27942070	     -0.29033753	      3.15745033
